<?xml version="1.0" encoding="UTF-8" standalone="no"?>
<!-- Created with Inkscape (http://www.inkscape.org/) -->

<svg
   xmlns:dc="http://purl.org/dc/elements/1.1/"
   xmlns:cc="http://creativecommons.org/ns#"
   xmlns:rdf="http://www.w3.org/1999/02/22-rdf-syntax-ns#"
   xmlns:svg="http://www.w3.org/2000/svg"
   xmlns="http://www.w3.org/2000/svg"
   xmlns:sodipodi="http://sodipodi.sourceforge.net/DTD/sodipodi-0.dtd"
   xmlns:inkscape="http://www.inkscape.org/namespaces/inkscape"
   id="svg5930"
   version="1.1"
   inkscape:version="0.48.4 r9939"
   width="743.75"
   height="1052.5"
   xml:space="preserve"
   sodipodi:docname="2-3_factor.svg"
   inkscape:export-filename="/home/clemens/Rstats/R-Tutorial_CAA2016/img/2-3_factor.png"
   inkscape:export-xdpi="400"
   inkscape:export-ydpi="400"><sodipodi:namedview
     pagecolor="#ffffff"
     bordercolor="#666666"
     borderopacity="1"
     objecttolerance="10"
     gridtolerance="10"
     guidetolerance="10"
     inkscape:pageopacity="0"
     inkscape:pageshadow="2"
     inkscape:window-width="1851"
     inkscape:window-height="1053"
     id="namedview5932"
     showgrid="false"
     inkscape:zoom="1.4508527"
     inkscape:cx="348.45607"
     inkscape:cy="798.06949"
     inkscape:window-x="1989"
     inkscape:window-y="27"
     inkscape:window-maximized="1"
     inkscape:current-layer="g5938" /><metadata
     id="metadata5936"><rdf:RDF><cc:Work
         rdf:about=""><dc:format>image/svg+xml</dc:format><dc:type
           rdf:resource="http://purl.org/dc/dcmitype/StillImage" /><dc:title /></cc:Work></rdf:RDF></metadata><defs
     id="defs5934"><marker
       style="overflow:visible;"
       id="Arrow2Lend"
       refX="0.0"
       refY="0.0"
       orient="auto"
       inkscape:stockid="Arrow2Lend"><path
         transform="scale(1.1) rotate(180) translate(1,0)"
         d="M 8.7185878,4.0337352 L -2.2072895,0.016013256 L 8.7185884,-4.0017078 C 6.9730900,-1.6296469 6.9831476,1.6157441 8.7185878,4.0337352 z "
         style="fill-rule:evenodd;stroke-width:0.62500000;stroke-linejoin:round;"
         id="path9525" /></marker><clipPath
       id="clipPath5944"
       clipPathUnits="userSpaceOnUse"><path
         id="path5946"
         clip-rule="evenodd"
         d="m 0,0.1 595.2,0 0,841.8 L 0,841.9 0,0.1 z" /></clipPath><clipPath
       id="clipPath6430"
       clipPathUnits="userSpaceOnUse"><path
         id="path6432"
         d="m -177,420 949,0 0,0.1 -949,0 0,-0.1 z" /></clipPath><clipPath
       id="clipPath6686"
       clipPathUnits="userSpaceOnUse"><rect
         y="413.53818"
         x="66.068291"
         height="166.07578"
         width="330.34146"
         id="rect6688"
         style="fill:none;stroke:#000000;stroke-width:5;stroke-miterlimit:0;stroke-opacity:1;stroke-dasharray:none" /></clipPath><clipPath
       id="clipPath6690"
       clipPathUnits="userSpaceOnUse"><rect
         y="413.53818"
         x="66.068291"
         height="166.07578"
         width="330.34146"
         id="rect6692"
         style="fill:none;stroke:#000000;stroke-width:5;stroke-miterlimit:0;stroke-opacity:1;stroke-dasharray:none" /></clipPath><clipPath
       id="clipPath6694"
       clipPathUnits="userSpaceOnUse"><rect
         transform="scale(1,-1)"
         y="-503.4899"
         x="51.830692"
         height="132.86063"
         width="264.27316"
         id="rect6696"
         style="fill:none;stroke:#000000;stroke-width:4;stroke-miterlimit:0;stroke-opacity:1;stroke-dasharray:none" /></clipPath><clipPath
       id="clipPath7457"
       clipPathUnits="userSpaceOnUse"><rect
         transform="scale(1,-1)"
         y="-625.12793"
         x="50.382618"
         height="114.75972"
         width="165.80426"
         id="rect7459"
         style="fill:none;stroke:#000000;stroke-width:4;stroke-miterlimit:0;stroke-opacity:1;stroke-dasharray:none" /></clipPath><clipPath
       id="clipPath8691"
       clipPathUnits="userSpaceOnUse"><rect
         transform="scale(1,-1)"
         y="-764.37244"
         x="52.477009"
         height="133.36839"
         width="173.04613"
         id="rect8693"
         style="fill:none;stroke:#000000;stroke-width:4;stroke-miterlimit:0;stroke-opacity:1;stroke-dasharray:none" /></clipPath><marker
       style="overflow:visible;"
       id="Arrow2Lendg"
       refX="0.0"
       refY="0.0"
       orient="auto"
       inkscape:stockid="Arrow2Lendg"><path
         transform="scale(1.1) rotate(180) translate(1,0)"
         d="M 8.7185878,4.0337352 L -2.2072895,0.016013256 L 8.7185884,-4.0017078 C 6.9730900,-1.6296469 6.9831476,1.6157441 8.7185878,4.0337352 z "
         style="stroke-linejoin:round;stroke:#ff0000;stroke-width:0.62500000;fill:#ff0000;fill-rule:evenodd"
         id="path10230" /></marker><marker
       style="overflow:visible;"
       id="Arrow2Lend2"
       refX="0.0"
       refY="0.0"
       orient="auto"
       inkscape:stockid="Arrow2Lend2"><path
         transform="scale(1.1) rotate(180) translate(1,0)"
         d="M 8.7185878,4.0337352 L -2.2072895,0.016013256 L 8.7185884,-4.0017078 C 6.9730900,-1.6296469 6.9831476,1.6157441 8.7185878,4.0337352 z "
         style="stroke-linejoin:round;stroke:#ff0000;stroke-width:0.62500000;fill:#ff0000;fill-rule:evenodd"
         id="path11748" /></marker><clipPath
       clipPathUnits="userSpaceOnUse"
       id="clipPath13641"><path
         d="m -177,420 949,0 0,0.1 -949,0 0,-0.1 z"
         id="path13643" /></clipPath><clipPath
       clipPathUnits="userSpaceOnUse"
       id="clipPath13347"><path
         d="m 0,0.1 595.2,0 0,841.8 L 0,841.9 0,0.1 z"
         clip-rule="evenodd"
         id="path13349" /></clipPath><clipPath
       id="clipPath13805"
       clipPathUnits="userSpaceOnUse"><rect
         transform="scale(1,-1)"
         y="-761.34271"
         x="51.952305"
         height="134.18561"
         width="172.07146"
         id="rect13807"
         style="fill:none;stroke:#ff0000;stroke-width:0.73872918;stroke-miterlimit:4;stroke-opacity:1;stroke-dasharray:none" /></clipPath><clipPath
       clipPathUnits="userSpaceOnUse"
       id="clipPath13347-8"><path
         d="m 0,0.1 595.2,0 0,841.8 L 0,841.9 0,0.1 z"
         clip-rule="evenodd"
         id="path13349-8"
         inkscape:connector-curvature="0" /></clipPath><clipPath
       clipPathUnits="userSpaceOnUse"
       id="clipPath13641-0"><path
         d="m -177,420 949,0 0,0.1 -949,0 0,-0.1 z"
         id="path13643-1"
         inkscape:connector-curvature="0" /></clipPath><clipPath
       id="clipPath14609"
       clipPathUnits="userSpaceOnUse"><rect
         transform="scale(1,-1)"
         y="-621.73041"
         x="49.653576"
         height="133.71481"
         width="74.579826"
         id="rect14611"
         style="fill:none;stroke:#ff0000;stroke-width:0.48548779;stroke-miterlimit:4;stroke-opacity:1;stroke-dasharray:none" /></clipPath><clipPath
       clipPathUnits="userSpaceOnUse"
       id="clipPath13347-2"><path
         d="m 0,0.1 595.2,0 0,841.8 L 0,841.9 0,0.1 z"
         clip-rule="evenodd"
         id="path13349-9"
         inkscape:connector-curvature="0" /></clipPath><clipPath
       clipPathUnits="userSpaceOnUse"
       id="clipPath13641-8"><path
         d="m -177,420 949,0 0,0.1 -949,0 0,-0.1 z"
         id="path13643-11"
         inkscape:connector-curvature="0" /></clipPath><clipPath
       id="clipPath15096"
       clipPathUnits="userSpaceOnUse"><rect
         transform="scale(1,-1)"
         y="-479.83908"
         x="49.633804"
         height="112.75732"
         width="74.619377"
         id="rect15098"
         style="fill:none;stroke:#ff0000;stroke-width:0.4459396;stroke-miterlimit:4;stroke-opacity:1;stroke-dasharray:none" /></clipPath><marker
       style="overflow:visible"
       id="Arrow2Lend-4"
       refX="0"
       refY="0"
       orient="auto"
       inkscape:stockid="Arrow2Lend"><path
         transform="matrix(-1.1,0,0,-1.1,-1.1,0)"
         d="M 8.7185878,4.0337352 -2.2072895,0.01601326 8.7185884,-4.0017078 c -1.7454984,2.3720609 -1.7354408,5.6174519 -6e-7,8.035443 z"
         style="fill-rule:evenodd;stroke-width:0.625;stroke-linejoin:round"
         id="path9525-2"
         inkscape:connector-curvature="0" /></marker><marker
       style="overflow:visible"
       id="Arrow2Lend-45"
       refX="0"
       refY="0"
       orient="auto"
       inkscape:stockid="Arrow2Lend"><path
         transform="matrix(-1.1,0,0,-1.1,-1.1,0)"
         d="M 8.7185878,4.0337352 -2.2072895,0.01601326 8.7185884,-4.0017078 c -1.7454984,2.3720609 -1.7354408,5.6174519 -6e-7,8.035443 z"
         style="fill-rule:evenodd;stroke-width:0.625;stroke-linejoin:round"
         id="path9525-4"
         inkscape:connector-curvature="0" /></marker><marker
       style="overflow:visible;"
       id="Arrow2LendB"
       refX="0.0"
       refY="0.0"
       orient="auto"
       inkscape:stockid="Arrow2LendB"><path
         transform="scale(1.1) rotate(180) translate(1,0)"
         d="M 8.7185878,4.0337352 L -2.2072895,0.016013256 L 8.7185884,-4.0017078 C 6.9730900,-1.6296469 6.9831476,1.6157441 8.7185878,4.0337352 z "
         style="stroke-linejoin:round;stroke:#ff0000;stroke-width:0.62500000;fill:#ff0000;fill-rule:evenodd"
         id="path15194" /></marker><clipPath
       id="clipPath3866"
       clipPathUnits="userSpaceOnUse"><path
         id="path3868"
         d="m -177,420 949,0 0,0.1 -949,0 0,-0.1 z" /></clipPath><clipPath
       id="clipPath3524"
       clipPathUnits="userSpaceOnUse"><path
         id="path3526"
         clip-rule="evenodd"
         d="m 0,0.1 595.2,0 0,841.8 L 0,841.9 0,0.1 z" /></clipPath><clipPath
       id="clipPath4427"
       clipPathUnits="userSpaceOnUse"><path
         id="path4429"
         d="m -177,420 949,0 0,0.1 -949,0 0,-0.1 z" /></clipPath><clipPath
       id="clipPath4085"
       clipPathUnits="userSpaceOnUse"><path
         id="path4087"
         clip-rule="evenodd"
         d="m 0,0.1 595.2,0 0,841.8 L 0,841.9 0,0.1 z" /></clipPath><clipPath
       clipPathUnits="userSpaceOnUse"
       id="clipPath4615"><rect
         style="fill:none;stroke:#000000;stroke-width:4;stroke-miterlimit:0;stroke-opacity:1;stroke-dasharray:none"
         id="rect4617"
         width="175.14453"
         height="133.41547"
         x="52.103199"
         y="-761.50806"
         transform="scale(1,-1)" /></clipPath><clipPath
       id="clipPath4085-9"
       clipPathUnits="userSpaceOnUse"><path
         inkscape:connector-curvature="0"
         id="path4087-8"
         clip-rule="evenodd"
         d="m 0,0.1 595.2,0 0,841.8 L 0,841.9 0,0.1 z" /></clipPath><clipPath
       id="clipPath4427-2"
       clipPathUnits="userSpaceOnUse"><path
         inkscape:connector-curvature="0"
         id="path4429-7"
         d="m -177,420 949,0 0,0.1 -949,0 0,-0.1 z" /></clipPath><clipPath
       clipPathUnits="userSpaceOnUse"
       id="clipPath5174"><rect
         style="fill:none;stroke:#000000;stroke-width:4;stroke-miterlimit:0;stroke-opacity:1;stroke-dasharray:none"
         id="rect5176"
         width="175.14453"
         height="133.41547"
         x="52.103203"
         y="-620.45209"
         transform="scale(1,-1)" /></clipPath><clipPath
       id="clipPath4085-3"
       clipPathUnits="userSpaceOnUse"><path
         inkscape:connector-curvature="0"
         id="path4087-0"
         clip-rule="evenodd"
         d="m 0,0.1 595.2,0 0,841.8 L 0,841.9 0,0.1 z" /></clipPath><clipPath
       id="clipPath4427-8"
       clipPathUnits="userSpaceOnUse"><path
         inkscape:connector-curvature="0"
         id="path4429-9"
         d="m -177,420 949,0 0,0.1 -949,0 0,-0.1 z" /></clipPath><clipPath
       id="clipPath3650"
       clipPathUnits="userSpaceOnUse"><path
         id="path3652"
         d="m -177,420 949,0 0,0.1 -949,0 0,-0.1 z" /></clipPath><clipPath
       id="clipPath3420"
       clipPathUnits="userSpaceOnUse"><path
         id="path3422"
         clip-rule="evenodd"
         d="m 0,0.1 595.2,0 0,841.8 L 0,841.9 0,0.1 z" /></clipPath><clipPath
       clipPathUnits="userSpaceOnUse"
       id="clipPath3782"><rect
         style="fill:none;stroke:#000000;stroke-width:4;stroke-miterlimit:0;stroke-opacity:1;stroke-dasharray:none"
         id="rect3784"
         width="279.09772"
         height="139.31032"
         x="49.016777"
         y="-763.35522"
         transform="scale(1,-1)" /></clipPath><marker
       style="overflow:visible"
       id="Arrow2LendB-1"
       refX="0"
       refY="0"
       orient="auto"
       inkscape:stockid="Arrow2LendB"><path
         inkscape:connector-curvature="0"
         transform="matrix(-1.1,0,0,-1.1,-1.1,0)"
         d="M 8.7185878,4.0337352 -2.2072895,0.01601326 8.7185884,-4.0017078 c -1.7454984,2.3720609 -1.7354408,5.6174519 -6e-7,8.035443 z"
         style="fill:#ff0000;fill-rule:evenodd;stroke:#ff0000;stroke-width:0.625;stroke-linejoin:round"
         id="path15194-3" /></marker><marker
       style="overflow:visible;"
       id="Arrow2LendBJ"
       refX="0.0"
       refY="0.0"
       orient="auto"
       inkscape:stockid="Arrow2LendBJ"><path
         transform="scale(1.1) rotate(180) translate(1,0)"
         d="M 8.7185878,4.0337352 L -2.2072895,0.016013256 L 8.7185884,-4.0017078 C 6.9730900,-1.6296469 6.9831476,1.6157441 8.7185878,4.0337352 z "
         style="stroke-linejoin:round;fill-rule:evenodd;stroke:#0000ff;stroke-width:0.62500000;fill:#0000ff"
         id="path4718" /></marker><marker
       style="overflow:visible;"
       id="Arrow2LendBt"
       refX="0.0"
       refY="0.0"
       orient="auto"
       inkscape:stockid="Arrow2LendBt"><path
         transform="scale(1.1) rotate(180) translate(1,0)"
         d="M 8.7185878,4.0337352 L -2.2072895,0.016013256 L 8.7185884,-4.0017078 C 6.9730900,-1.6296469 6.9831476,1.6157441 8.7185878,4.0337352 z "
         style="stroke-linejoin:round;fill-rule:evenodd;stroke:#eb811b;stroke-width:0.62500000;fill:#eb811b"
         id="path4088" /></marker><marker
       style="overflow:visible;"
       id="Arrow2LendBJK"
       refX="0.0"
       refY="0.0"
       orient="auto"
       inkscape:stockid="Arrow2LendBJK"><path
         transform="scale(1.1) rotate(180) translate(1,0)"
         d="M 8.7185878,4.0337352 L -2.2072895,0.016013256 L 8.7185884,-4.0017078 C 6.9730900,-1.6296469 6.9831476,1.6157441 8.7185878,4.0337352 z "
         style="stroke-linejoin:round;stroke:#23373b;stroke-width:0.62500000;fill:#23373b;fill-rule:evenodd"
         id="path4091" /></marker></defs><g
     transform="matrix(1.25,0,0,-1.25,0,1052.5)"
     inkscape:label="2-3_merge"
     inkscape:groupmode="layer"
     id="g5938"><g
       id="g6426"><g
         id="g6428" /><g
         id="g6434"><g
           id="g6436"
           opacity="0.5"
           clip-path="url(#clipPath6430)" /></g></g><rect
       clip-path="url(#clipPath6690)"
       y="87.435013"
       x="66.87619"
       height="166.71049"
       width="216.30766"
       id="rect6678-9"
       style="fill:none;stroke:#000000;stroke-width:5;stroke-miterlimit:0;stroke-opacity:1;stroke-dasharray:none"
       transform="matrix(0.8,0,0,-0.8,387.56455,948.23901)" /><rect
       clip-path="url(#clipPath6686)"
       y="261.4906"
       x="64.258202"
       height="143.44965"
       width="207.25533"
       id="rect6682-9"
       style="fill:none;stroke:#000000;stroke-width:5;stroke-miterlimit:0;stroke-opacity:1;stroke-dasharray:none"
       transform="matrix(0.8,0,0,-0.8,387.56455,948.23901)" /><rect
       transform="matrix(0.8,0,0,-0.8,0,842)"
       y="7.1729255"
       x="5.4302707"
       height="383.73911"
       width="733.08655"
       id="rect8695"
       style="fill:none;stroke:#000000;stroke-width:2;stroke-miterlimit:0;stroke-opacity:1;stroke-dasharray:none" /><path
       sodipodi:nodetypes="csc"
       style="stroke-linejoin:miter;marker-end:url(#Arrow2LendBJK);stroke-opacity:1;stroke:#23373b;stroke-linecap:butt;stroke-miterlimit:4;stroke-dasharray:none;stroke-width:0.78799998999999998;fill:none"
       d="M 181.59996,663.61125 C 138.95258,687.0067 81.329578,712.21922 65.462994,729.32493 -14.317821,815.33633 224.11496,811.90504 213.06262,666.04057"
       id="path9944-1"
       inkscape:connector-curvature="0" /><text
       transform="scale(1,-1)"
       sodipodi:linespacing="125%"
       id="text15143"
       y="-797.73389"
       x="31.917667"
       style="font-size:16px;font-style:normal;font-weight:normal;line-height:125%;letter-spacing:0px;word-spacing:0px;fill:#23373b;fill-opacity:1;stroke:none;font-family:Sans"
       xml:space="preserve"><tspan
         style="fill:#23373b;fill-opacity:1"
         y="-797.73389"
         x="31.917667"
         id="tspan15145"
         sodipodi:role="line">tabelle1$Mannschaft &lt;- as.factor(tabelle1$Mannschaft)</tspan></text>
<g
       inkscape:label="2-3_factor"
       id="g3414"
       transform="translate(-44.722969,-93.5207)"
       clip-path="url(#clipPath3782)"><g
         id="g3416"><g
           clip-path="url(#clipPath3420)"
           id="g3418"><g
             id="g3424"><text
               id="text3426"
               transform="matrix(1,0,0,-1,56.8,774.1)"><tspan
                 id="tspan3428"
                 sodipodi:role="line"
                 y="0"
                 x="0 7.5960002 14.988 19.691999 27.084 34.68 41.976002 46.872002 50.172001 56.459999 59.759998 67.152 72.143997 79.739998 87.335999 94.931999 98.736 106.332 113.928 121.62 125.424 133.42799 140.82001 148.416 156.01199 160.29601 167.592 170.892 178.48801"
                 style="font-size:12px;font-variant:normal;font-weight:normal;writing-mode:lr-tb;fill:#000000;fill-opacity:1;fill-rule:nonzero;stroke:none;font-family:DejaVuSans;-inkscape-font-specification:DejaVuSans">Kategorisierung und Rangfolge</tspan></text>
</g><g
             transform="translate(56.8,774.1)"
             id="g3430"><path
               id="path3432"
               style="fill:none;stroke:#000000;stroke-width:0.69999999;stroke-linecap:butt;stroke-linejoin:miter;stroke-miterlimit:10;stroke-opacity:1;stroke-dasharray:none"
               d="m 0,-1.2 186,0"
               inkscape:connector-curvature="0" /></g><path
             id="path3434"
             style="fill:#000000;fill-opacity:1;fill-rule:evenodd;stroke:none"
             d="m 112.7,756.8 -0.5,-0.6 -54.9,0 -0.6,0.6 -0.5,0.5 57.1,0 -0.6,-0.5 z"
             inkscape:connector-curvature="0" /><path
             id="path3436"
             style="fill:#000000;fill-opacity:1;fill-rule:evenodd;stroke:none"
             d="m 158,756.8 -0.5,-0.6 -44.2,0 -0.6,0.6 -0.5,0.5 46.4,0 -0.6,-0.5 z"
             inkscape:connector-curvature="0" /><path
             id="path3438"
             style="fill:#000000;fill-opacity:1;fill-rule:evenodd;stroke:none"
             d="m 220.2,756.8 -0.5,-0.6 -61.1,0 -0.6,0.6 -0.5,0.5 63.3,0 -0.6,-0.5 z"
             inkscape:connector-curvature="0" /><path
             id="path3440"
             style="fill:#000000;fill-opacity:1;fill-rule:evenodd;stroke:none"
             d="m 318.9,756.8 -0.5,-0.6 -97.6,0 -0.6,0.6 -0.5,0.5 99.8,0 -0.6,-0.5 z"
             inkscape:connector-curvature="0" /><path
             id="path3442"
             style="fill:#000000;fill-opacity:1;fill-rule:evenodd;stroke:none"
             d="m 112.7,734 -0.5,-0.6 -54.9,0 -0.6,0.6 0.6,0.5 54.9,0 0.5,-0.5 z"
             inkscape:connector-curvature="0" /><path
             id="path3444"
             style="fill:#000000;fill-opacity:1;fill-rule:evenodd;stroke:none"
             d="m 158,734 -0.5,-0.6 -44.2,0 -0.6,0.6 0.6,0.5 44.2,0 0.5,-0.5 z"
             inkscape:connector-curvature="0" /><path
             id="path3446"
             style="fill:#000000;fill-opacity:1;fill-rule:evenodd;stroke:none"
             d="m 220.2,734 -0.5,-0.6 -61.1,0 -0.6,0.6 0.6,0.5 61.1,0 0.5,-0.5 z"
             inkscape:connector-curvature="0" /><path
             id="path3448"
             style="fill:#000000;fill-opacity:1;fill-rule:evenodd;stroke:none"
             d="m 318.9,734 -0.5,-0.6 -97.6,0 -0.6,0.6 0.6,0.5 97.6,0 0.5,-0.5 z"
             inkscape:connector-curvature="0" /><path
             id="path3450"
             style="fill:#000000;fill-opacity:1;fill-rule:evenodd;stroke:none"
             d="m 112.7,713.5 -0.5,-0.6 -54.9,0 -0.6,0.6 0.6,0.5 54.9,0 0.5,-0.5 z"
             inkscape:connector-curvature="0" /><path
             id="path3452"
             style="fill:#000000;fill-opacity:1;fill-rule:evenodd;stroke:none"
             d="m 158,713.5 -0.5,-0.6 -44.2,0 -0.6,0.6 0.6,0.5 44.2,0 0.5,-0.5 z"
             inkscape:connector-curvature="0" /><path
             id="path3454"
             style="fill:#000000;fill-opacity:1;fill-rule:evenodd;stroke:none"
             d="m 220.2,713.5 -0.5,-0.6 -61.1,0 -0.6,0.6 0.6,0.5 61.1,0 0.5,-0.5 z"
             inkscape:connector-curvature="0" /><path
             id="path3456"
             style="fill:#000000;fill-opacity:1;fill-rule:evenodd;stroke:none"
             d="m 318.9,713.5 -0.5,-0.6 -97.6,0 -0.6,0.6 0.6,0.5 97.6,0 0.5,-0.5 z"
             inkscape:connector-curvature="0" /><path
             id="path3458"
             style="fill:#000000;fill-opacity:1;fill-rule:evenodd;stroke:none"
             d="m 112.7,693 -0.5,-0.6 -54.9,0 -0.6,0.6 0.6,0.5 54.9,0 0.5,-0.5 z"
             inkscape:connector-curvature="0" /><path
             id="path3460"
             style="fill:#000000;fill-opacity:1;fill-rule:evenodd;stroke:none"
             d="m 158,693 -0.5,-0.6 -44.2,0 -0.6,0.6 0.6,0.5 44.2,0 0.5,-0.5 z"
             inkscape:connector-curvature="0" /><path
             id="path3462"
             style="fill:#000000;fill-opacity:1;fill-rule:evenodd;stroke:none"
             d="m 220.2,693 -0.5,-0.6 -61.1,0 -0.6,0.6 0.6,0.5 61.1,0 0.5,-0.5 z"
             inkscape:connector-curvature="0" /><path
             id="path3464"
             style="fill:#000000;fill-opacity:1;fill-rule:evenodd;stroke:none"
             d="m 318.9,693 -0.5,-0.6 -97.6,0 -0.6,0.6 0.6,0.5 97.6,0 0.5,-0.5 z"
             inkscape:connector-curvature="0" /><path
             id="path3466"
             style="fill:#000000;fill-opacity:1;fill-rule:evenodd;stroke:none"
             d="m 112.7,672.5 -0.5,-0.6 -54.9,0 -0.6,0.6 0.6,0.5 54.9,0 0.5,-0.5 z"
             inkscape:connector-curvature="0" /><path
             id="path3468"
             style="fill:#000000;fill-opacity:1;fill-rule:evenodd;stroke:none"
             d="m 158,672.5 -0.5,-0.6 -44.2,0 -0.6,0.6 0.6,0.5 44.2,0 0.5,-0.5 z"
             inkscape:connector-curvature="0" /><path
             id="path3470"
             style="fill:#000000;fill-opacity:1;fill-rule:evenodd;stroke:none"
             d="m 220.2,672.5 -0.5,-0.6 -61.1,0 -0.6,0.6 0.6,0.5 61.1,0 0.5,-0.5 z"
             inkscape:connector-curvature="0" /><path
             id="path3472"
             style="fill:#000000;fill-opacity:1;fill-rule:evenodd;stroke:none"
             d="m 318.9,672.5 -0.5,-0.6 -97.6,0 -0.6,0.6 0.6,0.5 97.6,0 0.5,-0.5 z"
             inkscape:connector-curvature="0" /><path
             id="path3474"
             style="fill:#000000;fill-opacity:1;fill-rule:evenodd;stroke:none"
             d="m 112.7,652 -0.5,-0.6 -54.9,0 -0.6,0.6 0.6,0.5 54.9,0 0.5,-0.5 z"
             inkscape:connector-curvature="0" /><path
             id="path3476"
             style="fill:#000000;fill-opacity:1;fill-rule:evenodd;stroke:none"
             d="m 158,652 -0.5,-0.6 -44.2,0 -0.6,0.6 0.6,0.5 44.2,0 0.5,-0.5 z"
             inkscape:connector-curvature="0" /><path
             id="path3478"
             style="fill:#000000;fill-opacity:1;fill-rule:evenodd;stroke:none"
             d="m 220.2,652 -0.5,-0.6 -61.1,0 -0.6,0.6 0.6,0.5 61.1,0 0.5,-0.5 z"
             inkscape:connector-curvature="0" /><path
             id="path3480"
             style="fill:#000000;fill-opacity:1;fill-rule:evenodd;stroke:none"
             d="m 318.9,652 -0.5,-0.6 -97.6,0 -0.6,0.6 0.6,0.5 97.6,0 0.5,-0.5 z"
             inkscape:connector-curvature="0" /><path
             id="path3482"
             style="fill:#000000;fill-opacity:1;fill-rule:evenodd;stroke:none"
             d="m 112.7,631.5 0.6,-0.6 -57.1,0 0.5,0.6 0.6,0.5 54.9,0 0.5,-0.5 z"
             inkscape:connector-curvature="0" /><path
             id="path3484"
             style="fill:#000000;fill-opacity:1;fill-rule:evenodd;stroke:none"
             d="m 158,631.5 0.6,-0.6 -46.4,0 0.5,0.6 0.6,0.5 44.2,0 0.5,-0.5 z"
             inkscape:connector-curvature="0" /><path
             id="path3486"
             style="fill:#000000;fill-opacity:1;fill-rule:evenodd;stroke:none"
             d="m 220.2,631.5 0.6,-0.6 -63.3,0 0.5,0.6 0.6,0.5 61.1,0 0.5,-0.5 z"
             inkscape:connector-curvature="0" /><path
             id="path3488"
             style="fill:#000000;fill-opacity:1;fill-rule:evenodd;stroke:none"
             d="m 318.9,631.5 0.6,-0.6 -99.8,0 0.5,0.6 0.6,0.5 97.6,0 0.5,-0.5 z"
             inkscape:connector-curvature="0" /><path
             id="path3490"
             style="fill:#000000;fill-opacity:1;fill-rule:evenodd;stroke:none"
             d="m 56.7,756.8 0.6,-0.6 0,-21.7 -0.6,-0.5 -0.5,-0.6 0,23.9 0.5,-0.5 z"
             inkscape:connector-curvature="0" /><path
             id="path3492"
             style="fill:#000000;fill-opacity:1;fill-rule:evenodd;stroke:none"
             d="m 56.7,734 0.6,-0.6 0,-19.4 -0.6,-0.5 -0.5,-0.6 0,21.6 0.5,-0.5 z"
             inkscape:connector-curvature="0" /><path
             id="path3494"
             style="fill:#000000;fill-opacity:1;fill-rule:evenodd;stroke:none"
             d="m 56.7,713.5 0.6,-0.6 0,-19.4 -0.6,-0.5 -0.5,-0.6 0,21.6 0.5,-0.5 z"
             inkscape:connector-curvature="0" /><path
             id="path3496"
             style="fill:#000000;fill-opacity:1;fill-rule:evenodd;stroke:none"
             d="m 56.7,693 0.6,-0.6 0,-19.4 -0.6,-0.5 -0.5,-0.6 0,21.6 0.5,-0.5 z"
             inkscape:connector-curvature="0" /><path
             id="path3498"
             style="fill:#000000;fill-opacity:1;fill-rule:evenodd;stroke:none"
             d="m 56.7,672.5 0.6,-0.6 0,-19.4 -0.6,-0.5 -0.5,-0.6 0,21.6 0.5,-0.5 z"
             inkscape:connector-curvature="0" /><path
             id="path3500"
             style="fill:#000000;fill-opacity:1;fill-rule:evenodd;stroke:none"
             d="m 56.7,652 0.6,-0.6 0,-19.4 -0.6,-0.5 -0.5,-0.6 0,21.6 0.5,-0.5 z"
             inkscape:connector-curvature="0" /><path
             id="path3502"
             style="fill:#000000;fill-opacity:1;fill-rule:evenodd;stroke:none"
             d="m 112.7,756.8 0.6,-0.6 0,-21.7 -0.6,-0.5 -0.5,0.5 0,21.7 0.5,0.6 z"
             inkscape:connector-curvature="0" /><path
             id="path3504"
             style="fill:#000000;fill-opacity:1;fill-rule:evenodd;stroke:none"
             d="m 112.7,734 0.6,-0.6 0,-19.4 -0.6,-0.5 -0.5,0.5 0,19.4 0.5,0.6 z"
             inkscape:connector-curvature="0" /><path
             id="path3506"
             style="fill:#000000;fill-opacity:1;fill-rule:evenodd;stroke:none"
             d="m 112.7,713.5 0.6,-0.6 0,-19.4 -0.6,-0.5 -0.5,0.5 0,19.4 0.5,0.6 z"
             inkscape:connector-curvature="0" /><path
             id="path3508"
             style="fill:#000000;fill-opacity:1;fill-rule:evenodd;stroke:none"
             d="m 112.7,693 0.6,-0.6 0,-19.4 -0.6,-0.5 -0.5,0.5 0,19.4 0.5,0.6 z"
             inkscape:connector-curvature="0" /><path
             id="path3510"
             style="fill:#000000;fill-opacity:1;fill-rule:evenodd;stroke:none"
             d="m 112.7,672.5 0.6,-0.6 0,-19.4 -0.6,-0.5 -0.5,0.5 0,19.4 0.5,0.6 z"
             inkscape:connector-curvature="0" /><path
             id="path3512"
             style="fill:#000000;fill-opacity:1;fill-rule:evenodd;stroke:none"
             d="m 112.7,652 0.6,-0.6 0,-19.4 -0.6,-0.5 -0.5,0.5 0,19.4 0.5,0.6 z"
             inkscape:connector-curvature="0" /><path
             id="path3514"
             style="fill:#000000;fill-opacity:1;fill-rule:evenodd;stroke:none"
             d="m 158,756.8 0.6,-0.6 0,-21.7 -0.6,-0.5 -0.5,0.5 0,21.7 0.5,0.6 z"
             inkscape:connector-curvature="0" /><path
             id="path3516"
             style="fill:#000000;fill-opacity:1;fill-rule:evenodd;stroke:none"
             d="m 158,734 0.6,-0.6 0,-19.4 -0.6,-0.5 -0.5,0.5 0,19.4 0.5,0.6 z"
             inkscape:connector-curvature="0" /><path
             id="path3518"
             style="fill:#000000;fill-opacity:1;fill-rule:evenodd;stroke:none"
             d="m 158,713.5 0.6,-0.6 0,-19.4 -0.6,-0.5 -0.5,0.5 0,19.4 0.5,0.6 z"
             inkscape:connector-curvature="0" /><path
             id="path3520"
             style="fill:#000000;fill-opacity:1;fill-rule:evenodd;stroke:none"
             d="m 158,693 0.6,-0.6 0,-19.4 -0.6,-0.5 -0.5,0.5 0,19.4 0.5,0.6 z"
             inkscape:connector-curvature="0" /><path
             id="path3522"
             style="fill:#000000;fill-opacity:1;fill-rule:evenodd;stroke:none"
             d="m 158,672.5 0.6,-0.6 0,-19.4 -0.6,-0.5 -0.5,0.5 0,19.4 0.5,0.6 z"
             inkscape:connector-curvature="0" /><path
             id="path3524"
             style="fill:#000000;fill-opacity:1;fill-rule:evenodd;stroke:none"
             d="m 158,652 0.6,-0.6 0,-19.4 -0.6,-0.5 -0.5,0.5 0,19.4 0.5,0.6 z"
             inkscape:connector-curvature="0" /><path
             id="path3526-0"
             style="fill:#000000;fill-opacity:1;fill-rule:evenodd;stroke:none"
             d="m 220.2,756.8 0.6,-0.6 0,-21.7 -0.6,-0.5 -0.5,0.5 0,21.7 0.5,0.6 z"
             inkscape:connector-curvature="0" /><path
             id="path3528"
             style="fill:#000000;fill-opacity:1;fill-rule:evenodd;stroke:none"
             d="m 220.2,734 0.6,-0.6 0,-19.4 -0.6,-0.5 -0.5,0.5 0,19.4 0.5,0.6 z"
             inkscape:connector-curvature="0" /><path
             id="path3530"
             style="fill:#000000;fill-opacity:1;fill-rule:evenodd;stroke:none"
             d="m 220.2,713.5 0.6,-0.6 0,-19.4 -0.6,-0.5 -0.5,0.5 0,19.4 0.5,0.6 z"
             inkscape:connector-curvature="0" /><path
             id="path3532"
             style="fill:#000000;fill-opacity:1;fill-rule:evenodd;stroke:none"
             d="m 220.2,693 0.6,-0.6 0,-19.4 -0.6,-0.5 -0.5,0.5 0,19.4 0.5,0.6 z"
             inkscape:connector-curvature="0" /><path
             id="path3534"
             style="fill:#000000;fill-opacity:1;fill-rule:evenodd;stroke:none"
             d="m 220.2,672.5 0.6,-0.6 0,-19.4 -0.6,-0.5 -0.5,0.5 0,19.4 0.5,0.6 z"
             inkscape:connector-curvature="0" /><path
             id="path3536"
             style="fill:#000000;fill-opacity:1;fill-rule:evenodd;stroke:none"
             d="m 220.2,652 0.6,-0.6 0,-19.4 -0.6,-0.5 -0.5,0.5 0,19.4 0.5,0.6 z"
             inkscape:connector-curvature="0" /><path
             id="path3538"
             style="fill:#000000;fill-opacity:1;fill-rule:evenodd;stroke:none"
             d="m 318.9,756.8 0.6,0.5 0,-23.9 -0.6,0.6 -0.5,0.5 0,21.7 0.5,0.6 z"
             inkscape:connector-curvature="0" /><path
             id="path3540"
             style="fill:#000000;fill-opacity:1;fill-rule:evenodd;stroke:none"
             d="m 318.9,734 0.6,0.5 0,-21.6 -0.6,0.6 -0.5,0.5 0,19.4 0.5,0.6 z"
             inkscape:connector-curvature="0" /><path
             id="path3542"
             style="fill:#000000;fill-opacity:1;fill-rule:evenodd;stroke:none"
             d="m 318.9,713.5 0.6,0.5 0,-21.6 -0.6,0.6 -0.5,0.5 0,19.4 0.5,0.6 z"
             inkscape:connector-curvature="0" /><path
             id="path3544"
             style="fill:#000000;fill-opacity:1;fill-rule:evenodd;stroke:none"
             d="m 318.9,693 0.6,0.5 0,-21.6 -0.6,0.6 -0.5,0.5 0,19.4 0.5,0.6 z"
             inkscape:connector-curvature="0" /><path
             id="path3546"
             style="fill:#000000;fill-opacity:1;fill-rule:evenodd;stroke:none"
             d="m 318.9,672.5 0.6,0.5 0,-21.6 -0.6,0.6 -0.5,0.5 0,19.4 0.5,0.6 z"
             inkscape:connector-curvature="0" /><path
             id="path3548"
             style="fill:#000000;fill-opacity:1;fill-rule:evenodd;stroke:none"
             d="m 318.9,652 0.6,0.5 0,-21.6 -0.6,0.6 -0.5,0.5 0,19.4 0.5,0.6 z"
             inkscape:connector-curvature="0" /><text
             id="text3550"
             transform="matrix(1,0,0,-1,59.6,740.5)"><tspan
               id="tspan3552"
               sodipodi:role="line"
               y="0"
               x="0 11.704 21.098 35.686001"
               style="font-size:14px;font-variant:normal;font-weight:bold;writing-mode:lr-tb;fill:#000000;fill-opacity:1;fill-rule:nonzero;stroke:none;font-family:DejaVuSans;-inkscape-font-specification:DejaVuSans-Bold">Name</tspan></text>
<text
             id="text3554"
             transform="matrix(1,0,0,-1,115.6,740.5)"><tspan
               id="tspan3556"
               sodipodi:role="line"
               y="0"
               x="0 10.794 15.582 22.274 31.766001"
               style="font-size:14px;font-variant:normal;font-weight:bold;writing-mode:lr-tb;fill:#000000;fill-opacity:1;fill-rule:nonzero;stroke:none;font-family:DejaVuSans;-inkscape-font-specification:DejaVuSans-Bold">Alter</tspan></text>
<text
             id="text3558"
             transform="matrix(1,0,0,-1,160.9,740.5)"><tspan
               id="tspan3560"
               sodipodi:role="line"
               y="0"
               x="0 10.08 16.771999 26.166 36.161999"
               style="font-size:14px;font-variant:normal;font-weight:bold;writing-mode:lr-tb;fill:#000000;fill-opacity:1;fill-rule:nonzero;stroke:none;font-family:DejaVuSans;-inkscape-font-specification:DejaVuSans-Bold">Stadt</tspan></text>
<text
             id="text3562"
             transform="matrix(1,0,0,-1,223.1,740.5)"><tspan
               id="tspan3564"
               sodipodi:role="line"
               y="0"
               x="0 13.986 23.379999 33.278 43.259998 51.562 59.849998 69.832001 79.225998 85.316002"
               style="font-size:14px;font-variant:normal;font-weight:bold;writing-mode:lr-tb;fill:#000000;fill-opacity:1;fill-rule:nonzero;stroke:none;font-family:DejaVuSans;-inkscape-font-specification:DejaVuSans-Bold">Mannschaft</tspan></text>
<text
             id="text3566"
             transform="matrix(1,0,0,-1,59.6,719.6)"><tspan
               id="tspan3568"
               sodipodi:role="line"
               y="0"
               x="0 9 16.392 23.988001"
               style="font-size:12px;font-variant:normal;font-weight:normal;writing-mode:lr-tb;fill:#000000;fill-opacity:1;fill-rule:nonzero;stroke:none;font-family:DejaVuSans;-inkscape-font-specification:DejaVuSans">Hans</tspan></text>
<text
             id="text3570"
             transform="matrix(1,0,0,-1,115.6,719.6)"><tspan
               id="tspan3572"
               sodipodi:role="line"
               y="0"
               x="0 7.5960002"
               style="font-size:12px;font-variant:normal;font-weight:normal;writing-mode:lr-tb;fill:#000000;fill-opacity:1;fill-rule:nonzero;stroke:none;font-family:DejaVuSans;-inkscape-font-specification:DejaVuSans">23</tspan></text>
<text
             id="text3574"
             transform="matrix(1,0,0,-1,160.9,719.6)"><tspan
               id="tspan3576"
               sodipodi:role="line"
               y="0"
               x="0 9 16.392 28.08 35.675999 43.271999 47.976002"
               style="font-size:12px;font-variant:normal;font-weight:normal;writing-mode:lr-tb;fill:#000000;fill-opacity:1;fill-rule:nonzero;stroke:none;font-family:DejaVuSans;-inkscape-font-specification:DejaVuSans">Hamburg</tspan></text>
<text
             id="text3578"
             transform="matrix(1,0,0,-1,265.5,719.6)"><tspan
               id="tspan3580"
               y="0"
               x="0"
               style="font-size:12px;font-variant:normal;font-weight:normal;writing-mode:lr-tb;fill:#000000;fill-opacity:1;fill-rule:nonzero;stroke:none;font-family:DejaVuSans;-inkscape-font-specification:DejaVuSans">C</tspan></text>
<text
             id="text3582"
             transform="matrix(1,0,0,-1,59.6,699.1)"><tspan
               id="tspan3584"
               sodipodi:role="line"
               y="0"
               x="0 6.5999999 13.992 21.684 24.983999"
               style="font-size:12px;font-variant:normal;font-weight:normal;writing-mode:lr-tb;fill:#000000;fill-opacity:1;fill-rule:nonzero;stroke:none;font-family:DejaVuSans;-inkscape-font-specification:DejaVuSans">Paula</tspan></text>
<text
             id="text3586"
             transform="matrix(1,0,0,-1,115.6,699.1)"><tspan
               id="tspan3588"
               sodipodi:role="line"
               y="0"
               x="0 7.5960002"
               style="font-size:12px;font-variant:normal;font-weight:normal;writing-mode:lr-tb;fill:#000000;fill-opacity:1;fill-rule:nonzero;stroke:none;font-family:DejaVuSans;-inkscape-font-specification:DejaVuSans">45</tspan></text>
<text
             id="text3590"
             transform="matrix(1,0,0,-1,160.9,699.1)"><tspan
               id="tspan3592"
               sodipodi:role="line"
               y="0"
               x="0 7.8839998 11.184 18.576"
               style="font-size:12px;font-variant:normal;font-weight:normal;writing-mode:lr-tb;fill:#000000;fill-opacity:1;fill-rule:nonzero;stroke:none;font-family:DejaVuSans;-inkscape-font-specification:DejaVuSans">Kiel</tspan></text>
<text
             id="text3594"
             transform="matrix(1,0,0,-1,265.6,699.1)"><tspan
               id="tspan3596"
               y="0"
               x="0"
               style="font-size:12px;font-variant:normal;font-weight:normal;writing-mode:lr-tb;fill:#000000;fill-opacity:1;fill-rule:nonzero;stroke:none;font-family:DejaVuSans;-inkscape-font-specification:DejaVuSans">A</tspan></text>
<text
             id="text3598"
             transform="matrix(1,0,0,-1,59.6,678.6)"><tspan
               id="tspan3600"
               sodipodi:role="line"
               y="0"
               x="0 6.0960002 10.692 18.084"
               style="font-size:12px;font-variant:normal;font-weight:normal;writing-mode:lr-tb;fill:#000000;fill-opacity:1;fill-rule:nonzero;stroke:none;font-family:DejaVuSans;-inkscape-font-specification:DejaVuSans">Fred</tspan></text>
<text
             id="text3602"
             transform="matrix(1,0,0,-1,115.6,678.6)"><tspan
               id="tspan3604"
               sodipodi:role="line"
               y="0"
               x="0 7.5960002"
               style="font-size:12px;font-variant:normal;font-weight:normal;writing-mode:lr-tb;fill:#000000;fill-opacity:1;fill-rule:nonzero;stroke:none;font-family:DejaVuSans;-inkscape-font-specification:DejaVuSans">24</tspan></text>
<text
             id="text3606"
             transform="matrix(1,0,0,-1,160.9,678.6)"><tspan
               id="tspan3608"
               sodipodi:role="line"
               y="0"
               x="0 10.392 17.988001 25.584 32.172001 39.768002 47.16"
               style="font-size:12px;font-variant:normal;font-weight:normal;writing-mode:lr-tb;fill:#000000;fill-opacity:1;fill-rule:nonzero;stroke:none;font-family:DejaVuSans;-inkscape-font-specification:DejaVuSans">München</tspan></text>
<text
             id="text3610"
             transform="matrix(1,0,0,-1,265.5,678.6)"><tspan
               id="tspan3612"
               y="0"
               x="0"
               style="font-size:12px;font-variant:normal;font-weight:normal;writing-mode:lr-tb;fill:#000000;fill-opacity:1;fill-rule:nonzero;stroke:none;font-family:DejaVuSans;-inkscape-font-specification:DejaVuSans">C</tspan></text>
<text
             id="text3614"
             transform="matrix(1,0,0,-1,59.6,658.1)"><tspan
               id="tspan3616"
               sodipodi:role="line"
               y="0"
               x="0 7.1999998 14.592 22.188 29.58 35.784 42.071999"
               style="font-size:12px;font-variant:normal;font-weight:normal;writing-mode:lr-tb;fill:#000000;fill-opacity:1;fill-rule:nonzero;stroke:none;font-family:DejaVuSans;-inkscape-font-specification:DejaVuSans">Vanessa</tspan></text>
<text
             id="text3618"
             transform="matrix(1,0,0,-1,115.6,658.1)"><tspan
               id="tspan3620"
               sodipodi:role="line"
               y="0"
               x="0 7.5960002"
               style="font-size:12px;font-variant:normal;font-weight:normal;writing-mode:lr-tb;fill:#000000;fill-opacity:1;fill-rule:nonzero;stroke:none;font-family:DejaVuSans;-inkscape-font-specification:DejaVuSans">21</tspan></text>
<text
             id="text3622"
             transform="matrix(1,0,0,-1,160.9,658.1)"><tspan
               id="tspan3624"
               sodipodi:role="line"
               y="0"
               x="0 7.5960002 12.3 19.896 24.6 29.304001 36.900002 44.292 49.188"
               style="font-size:12px;font-variant:normal;font-weight:normal;writing-mode:lr-tb;fill:#000000;fill-opacity:1;fill-rule:nonzero;stroke:none;font-family:DejaVuSans;-inkscape-font-specification:DejaVuSans">Stuttgart</tspan></text>
<text
             id="text3626"
             transform="matrix(1,0,0,-1,265.6,658.1)"><tspan
               id="tspan3628"
               y="0"
               x="0"
               style="font-size:12px;font-variant:normal;font-weight:normal;writing-mode:lr-tb;fill:#000000;fill-opacity:1;fill-rule:nonzero;stroke:none;font-family:DejaVuSans;-inkscape-font-specification:DejaVuSans">B</tspan></text>
<text
             id="text3630"
             transform="matrix(1,0,0,-1,59.6,637.6)"><tspan
               id="tspan3632"
               sodipodi:role="line"
               y="0"
               x="0 3.5039999 10.896 18.492001"
               style="font-size:12px;font-variant:normal;font-weight:normal;writing-mode:lr-tb;fill:#000000;fill-opacity:1;fill-rule:nonzero;stroke:none;font-family:DejaVuSans;-inkscape-font-specification:DejaVuSans">Jenz</tspan></text>
<text
             id="text3634"
             transform="matrix(1,0,0,-1,115.6,637.6)"><tspan
               id="tspan3636"
               sodipodi:role="line"
               y="0"
               x="0 7.5960002"
               style="font-size:12px;font-variant:normal;font-weight:normal;writing-mode:lr-tb;fill:#000000;fill-opacity:1;fill-rule:nonzero;stroke:none;font-family:DejaVuSans;-inkscape-font-specification:DejaVuSans">30</tspan></text>
<text
             id="text3638"
             transform="matrix(1,0,0,-1,160.9,637.6)"><tspan
               id="tspan3640"
               sodipodi:role="line"
               y="0"
               x="0 9 16.392 28.08 35.675999 43.271999 47.976002"
               style="font-size:12px;font-variant:normal;font-weight:normal;writing-mode:lr-tb;fill:#000000;fill-opacity:1;fill-rule:nonzero;stroke:none;font-family:DejaVuSans;-inkscape-font-specification:DejaVuSans">Hamburg</tspan></text>
<text
             id="text3642"
             transform="matrix(1,0,0,-1,265.6,637.6)"><tspan
               id="tspan3644"
               y="0"
               x="0"
               style="font-size:12px;font-variant:normal;font-weight:normal;writing-mode:lr-tb;fill:#000000;fill-opacity:1;fill-rule:nonzero;stroke:none;font-family:DejaVuSans;-inkscape-font-specification:DejaVuSans">B</tspan></text>
</g></g><g
         id="g3646"><g
           id="g3648" /><g
           id="g3654"><g
             id="g3656"
             clip-path="url(#clipPath3650)"
             style="opacity:0.5" /></g></g></g><text
       sodipodi:linespacing="125%"
       id="text15143-0"
       y="-741.10291"
       x="209.50429"
       style="font-size:16px;font-style:normal;font-weight:normal;line-height:125%;letter-spacing:0px;word-spacing:0px;fill:#eb811b;fill-opacity:1;stroke:none;font-family:Sans"
       xml:space="preserve"
       transform="scale(1,-1)"><tspan
         style="fill:#eb811b;fill-opacity:1"
         y="-741.10291"
         x="209.50429"
         id="tspan15145-0"
         sodipodi:role="line">levels(tabelle1$Mannschaft) &lt;- c(&quot;A&quot;, &quot;B&quot;, &quot;C&quot;)</tspan></text>
<path
       sodipodi:nodetypes="csssc"
       style="stroke-linejoin:miter;marker-end:url(#Arrow2LendBt);stroke-opacity:1;stroke:#eb811b;stroke-linecap:butt;stroke-miterlimit:4;stroke-dasharray:none;stroke-width:0.78799998999999998;fill:none"
       d="m 253.35169,663.42484 c -65.61011,86.65494 132.19222,75.59503 140.96829,41.47847 1.48091,-5.757 -8.49039,-31.86573 -31.44505,-31.66116 -32.81633,0.29245 -55.38932,4.87135 -70.12028,3.617 -11.3714,-0.96829 -17.48621,-6.80141 -21.32862,-11.18389"
       id="path9944-1-7"
       inkscape:connector-curvature="0" /><text
       transform="scale(1,-1)"
       sodipodi:linespacing="125%"
       id="text5062"
       y="-699.67151"
       x="280.67825"
       style="font-size:16px;font-style:normal;font-weight:normal;line-height:125%;letter-spacing:0px;word-spacing:0px;fill:#000000;fill-opacity:1;stroke:none;font-family:Sans"
       xml:space="preserve"><tspan
         y="-699.67151"
         x="280.67825"
         id="tspan5064"
         sodipodi:role="line">A &lt; B &lt; C</tspan></text>
<text
       transform="scale(1,-1)"
       sodipodi:linespacing="125%"
       id="text5066"
       y="-754.9975"
       x="66.121323"
       style="font-size:16px;font-style:normal;font-weight:normal;line-height:125%;letter-spacing:0px;word-spacing:0px;fill:#000000;fill-opacity:1;stroke:none;font-family:Sans"
       xml:space="preserve"><tspan
         y="-754.9975"
         x="66.121323"
         id="tspan5068"
         sodipodi:role="line">B | A | C</tspan></text>
<rect
       style="fill:none;stroke:#eb811b;stroke-width:3.20000000000000018;stroke-linecap:round;stroke-linejoin:miter;stroke-miterlimit:0;stroke-opacity:1;stroke-dasharray:none"
       id="rect5733"
       width="97.48645"
       height="125.10399"
       x="176.27325"
       y="-663.03131"
       transform="scale(1,-1)" /></g></svg>